<svg width="154" height="138" viewBox="0 0 154 138" fill="none" xmlns="http://www.w3.org/2000/svg">
<g filter="url(#filter0_d_272_173)">
<path d="M24.3538 11.1883C21.6924 17.7636 20.2222 24.9482 20.2222 32.5135C20.2222 40.0789 21.6924 47.2634 24.3538 53.8387C26.0267 58.0022 24.0243 62.7242 19.8674 64.4251C15.7104 66.126 10.9958 64.0951 9.29757 59.9316C5.87569 51.4523 4 42.186 4 32.5135C4 22.841 5.87569 13.5747 9.29757 5.09543C10.9958 0.931944 15.7104 -1.07364 19.8674 0.601912C24.0243 2.27746 26.0267 7.02485 24.3538 11.1883ZM144.702 5.09543C148.124 13.5747 150 22.841 150 32.5135C150 42.186 148.124 51.4523 144.702 59.9316C143.03 64.0951 138.29 66.1007 134.133 64.4251C129.976 62.7496 127.973 58.0022 129.646 53.8387C132.308 47.2634 133.778 40.0789 133.778 32.5135C133.778 24.9482 132.308 17.7636 129.646 11.1883C127.973 7.02485 129.976 2.30285 134.133 0.601912C138.29 -1.09902 143.004 0.931944 144.702 5.09543ZM93.2222 32.5135C93.2222 38.5303 89.9524 43.7854 85.1111 46.578V121.876C85.1111 126.37 81.4865 130 77 130C72.5135 130 68.8889 126.37 68.8889 121.876V46.578C64.0476 43.76 60.7778 38.5303 60.7778 32.5135C60.7778 23.5519 68.0524 16.2658 77 16.2658C85.9476 16.2658 93.2222 23.5519 93.2222 32.5135ZM47.2424 19.5153C45.5188 23.4757 44.5556 27.8677 44.5556 32.5135C44.5556 37.1594 45.5188 41.5513 47.2424 45.5117C49.042 49.6244 47.1663 54.4226 43.0601 56.1997C38.9538 57.9768 34.1632 56.1235 32.3889 52.0108C29.7781 46.0195 28.3333 39.4188 28.3333 32.5135C28.3333 25.6082 29.7781 19.0076 32.3889 13.0162C34.1885 8.9035 38.9538 7.02485 43.0601 8.82734C47.1663 10.6298 49.042 15.4026 47.2424 19.5153ZM121.611 13.0162C124.222 19.0076 125.667 25.6082 125.667 32.5135C125.667 39.4188 124.222 46.0195 121.611 52.0108C119.811 56.1235 115.046 58.0022 110.94 56.1997C106.834 54.3972 104.958 49.6244 106.758 45.5117C108.481 41.5513 109.444 37.1594 109.444 32.5135C109.444 27.8677 108.481 23.4757 106.758 19.5153C104.958 15.4026 106.834 10.6044 110.94 8.82734C115.046 7.05024 119.837 8.9035 121.611 13.0162Z" fill="#0171D4"/>
</g>
<defs>
<filter id="filter0_d_272_173" x="0" y="0" width="154" height="138" filterUnits="userSpaceOnUse" color-interpolation-filters="sRGB">
<feFlood flood-opacity="0" result="BackgroundImageFix"/>
<feColorMatrix in="SourceAlpha" type="matrix" values="0 0 0 0 0 0 0 0 0 0 0 0 0 0 0 0 0 0 127 0" result="hardAlpha"/>
<feOffset dy="4"/>
<feGaussianBlur stdDeviation="2"/>
<feComposite in2="hardAlpha" operator="out"/>
<feColorMatrix type="matrix" values="0 0 0 0 0 0 0 0 0 0 0 0 0 0 0 0 0 0 0.25 0"/>
<feBlend mode="normal" in2="BackgroundImageFix" result="effect1_dropShadow_272_173"/>
<feBlend mode="normal" in="SourceGraphic" in2="effect1_dropShadow_272_173" result="shape"/>
</filter>
</defs>
</svg>
