<svg width="138" height="138" viewBox="0 0 138 138" fill="none" xmlns="http://www.w3.org/2000/svg">
<g filter="url(#filter0_d_272_182)">
<path d="M43.7758 97.7149L35.9305 89.8698C33.7724 87.7117 33.0107 84.5889 33.9755 81.6946C34.7372 79.435 35.7527 76.4899 36.9714 73.1132H10.1095C7.92607 73.1132 5.89492 71.9453 4.80318 70.0412C3.71144 68.137 3.73683 65.8013 4.85396 63.9225L18.1833 41.4535C21.484 35.8934 27.4504 32.4913 33.8993 32.4913H54.7947C55.4041 31.4758 56.0134 30.5364 56.6227 29.6224C77.4166 -1.04714 108.392 -2.06269 126.875 1.3394C129.82 1.87256 132.105 4.18293 132.664 7.12802C136.066 25.6364 135.025 56.5852 104.38 77.3785C103.491 77.9878 102.527 78.5972 101.511 79.2065V100.101C101.511 106.55 98.1089 112.542 92.5486 115.817L70.0791 129.146C68.2003 130.263 65.8645 130.289 63.9603 129.197C62.0561 128.105 60.8882 126.099 60.8882 123.891V96.6739C57.3083 97.918 54.1854 98.9335 51.8242 99.6952C48.9806 100.609 45.8831 99.8221 43.7504 97.7149H43.7758ZM101.511 42.6468C104.204 42.6468 106.788 41.5768 108.692 39.6723C110.597 37.7678 111.667 35.1847 111.667 32.4913C111.667 29.7979 110.597 27.2148 108.692 25.3103C106.788 23.4058 104.204 22.3358 101.511 22.3358C98.8176 22.3358 96.2344 23.4058 94.3299 25.3103C92.4253 27.2148 91.3553 29.7979 91.3553 32.4913C91.3553 35.1847 92.4253 37.7678 94.3299 39.6723C96.2344 41.5768 98.8176 42.6468 101.511 42.6468Z" fill="#0171D4"/>
</g>
<defs>
<filter id="filter0_d_272_182" x="0" y="0" width="138" height="138" filterUnits="userSpaceOnUse" color-interpolation-filters="sRGB">
<feFlood flood-opacity="0" result="BackgroundImageFix"/>
<feColorMatrix in="SourceAlpha" type="matrix" values="0 0 0 0 0 0 0 0 0 0 0 0 0 0 0 0 0 0 127 0" result="hardAlpha"/>
<feOffset dy="4"/>
<feGaussianBlur stdDeviation="2"/>
<feComposite in2="hardAlpha" operator="out"/>
<feColorMatrix type="matrix" values="0 0 0 0 0 0 0 0 0 0 0 0 0 0 0 0 0 0 0.25 0"/>
<feBlend mode="normal" in2="BackgroundImageFix" result="effect1_dropShadow_272_182"/>
<feBlend mode="normal" in="SourceGraphic" in2="effect1_dropShadow_272_182" result="shape"/>
</filter>
</defs>
</svg>
