<svg width="172" height="138" viewBox="0 0 172 138" fill="none" xmlns="http://www.w3.org/2000/svg">
<g filter="url(#filter0_d_272_191)">
<path d="M144.867 63.1453V64.0135L163.184 45.6769C168.939 39.9155 168.939 30.6025 163.184 24.8411L142.659 4.32106C136.904 -1.44035 127.601 -1.44035 121.846 4.32106L111.307 14.8705C110.598 14.7916 109.862 14.7389 109.126 14.7389H79.6929C69.9431 14.7389 61.9278 22.1051 60.8766 31.5759H60.7715V63.1453C60.7715 68.9593 65.4755 73.6684 71.2833 73.6684C77.0912 73.6684 81.7952 68.9593 81.7952 63.1453V44.2037V44.1774V39.9944H86H121.74C121.74 39.9944 121.74 39.9944 121.767 39.9944H123.843C135.458 39.9944 144.867 49.4126 144.867 61.0407V63.1453ZM90.2048 48.4129V63.1453C90.2048 73.6158 81.7427 82.0869 71.2833 82.0869C60.824 82.0869 52.3619 73.6158 52.3619 63.1453V31.9442C42.9275 33.5753 35.0699 40.4417 32.3894 49.8862L28.0532 65.0395L8.81644 84.2968C3.06119 90.0582 3.06119 99.3711 8.81644 105.133L29.3409 125.679C35.0962 131.44 44.3992 131.44 50.1545 125.679L60.0619 115.761C60.2984 115.761 60.5349 115.787 60.7715 115.787H102.819C109.783 115.787 115.433 110.131 115.433 103.159C115.433 101.686 115.17 100.266 114.724 98.9502H115.433C122.397 98.9502 128.048 93.294 128.048 86.3225C128.048 82.9551 126.734 79.9034 124.579 77.6409C131.333 76.3255 136.431 70.3799 136.457 63.2242V63.119C136.431 55.0162 129.861 48.4392 121.74 48.4392H90.2048V48.4129Z" fill="#0171D4"/>
</g>
<defs>
<filter id="filter0_d_272_191" x="0.5" y="0" width="171" height="138" filterUnits="userSpaceOnUse" color-interpolation-filters="sRGB">
<feFlood flood-opacity="0" result="BackgroundImageFix"/>
<feColorMatrix in="SourceAlpha" type="matrix" values="0 0 0 0 0 0 0 0 0 0 0 0 0 0 0 0 0 0 127 0" result="hardAlpha"/>
<feOffset dy="4"/>
<feGaussianBlur stdDeviation="2"/>
<feComposite in2="hardAlpha" operator="out"/>
<feColorMatrix type="matrix" values="0 0 0 0 0 0 0 0 0 0 0 0 0 0 0 0 0 0 0.25 0"/>
<feBlend mode="normal" in2="BackgroundImageFix" result="effect1_dropShadow_272_191"/>
<feBlend mode="normal" in="SourceGraphic" in2="effect1_dropShadow_272_191" result="shape"/>
</filter>
</defs>
</svg>
