<svg width="18" height="18" viewBox="0 0 18 18" fill="none" xmlns="http://www.w3.org/2000/svg">
    <path fill-rule="evenodd" clip-rule="evenodd" d="M9.89437 14.4713C10.187 14.7641 10.187 15.2387 9.89437 15.5316L8.9625 16.4691C6.91033 18.5199 3.58416 18.5189 1.53328 16.4667C-0.517594 14.4145 -0.516544 11.0884 1.53562 9.0375L3.79688 6.77625C5.76196 4.80959 8.91953 4.71586 10.9978 6.5625C11.3085 6.83795 11.337 7.31309 11.0616 7.62375C10.7861 7.93441 10.311 7.96295 10.0003 7.6875C8.51599 6.36936 6.26156 6.43635 4.85813 7.84031L2.59688 10.0988C1.13211 11.5635 1.13211 13.9384 2.59688 15.4031C4.06164 16.8679 6.43649 16.8679 7.90125 15.4031L8.83313 14.4713C8.9738 14.3304 9.16469 14.2513 9.36375 14.2513C9.56281 14.2513 9.7537 14.3304 9.89437 14.4713ZM16.4644 1.53375C14.4122 -0.513869 11.0897 -0.513869 9.0375 1.53375L8.10563 2.46656C7.81283 2.75962 7.81304 3.23455 8.10609 3.52734C8.39915 3.82014 8.87408 3.81993 9.16687 3.52688L10.0988 2.595C11.5635 1.13024 13.9384 1.13024 15.4031 2.595C16.8679 4.05976 16.8679 6.43461 15.4031 7.89937L13.1419 10.1625C11.7377 11.5656 9.48328 11.6314 7.99969 10.3125C7.79873 10.1343 7.51797 10.0769 7.26317 10.1618C7.00838 10.2468 6.81826 10.4612 6.76442 10.7243C6.71059 10.9875 6.80123 11.2593 7.00219 11.4375C9.07998 13.2846 12.2375 13.1917 14.2031 11.2256L16.4644 8.96437C18.5132 6.91194 18.5132 3.58806 16.4644 1.53562V1.53375Z" fill="#0D141C"/>
</svg>